<?xml version="1.0" encoding="UTF-8"?><svg xmlns="http://www.w3.org/2000/svg" xmlns:xlink="http://www.w3.org/1999/xlink" viewBox="0 0 1598 1580"><defs><style>.cls-1{fill:url(#linear-gradient);}.cls-2{fill:url(#radial-gradient-19);}.cls-2,.cls-3,.cls-4,.cls-5,.cls-6,.cls-7,.cls-8,.cls-9,.cls-10,.cls-11,.cls-12,.cls-13,.cls-14,.cls-15,.cls-16,.cls-17,.cls-18,.cls-19,.cls-20,.cls-21,.cls-22,.cls-23{mix-blend-mode:color-dodge;opacity:.5;}.cls-3{fill:url(#radial-gradient-18);}.cls-4{fill:url(#radial-gradient-17);}.cls-5{fill:url(#radial-gradient-11);}.cls-6{fill:url(#radial-gradient-10);}.cls-7{fill:url(#radial-gradient-12);}.cls-8{fill:url(#radial-gradient-15);}.cls-9{fill:url(#radial-gradient-14);}.cls-10{fill:url(#radial-gradient-13);}.cls-11{fill:url(#radial-gradient-23);}.cls-12{fill:url(#radial-gradient-22);}.cls-13{fill:url(#radial-gradient-20);}.cls-14{fill:url(#radial-gradient-21);}.cls-24{fill:url(#radial-gradient-24);}.cls-25{fill:url(#radial-gradient-16);}.cls-15{fill:url(#radial-gradient-4);}.cls-16{fill:url(#radial-gradient-9);}.cls-17{fill:url(#radial-gradient-3);}.cls-18{fill:url(#radial-gradient-6);}.cls-19{fill:url(#radial-gradient-7);}.cls-20{fill:url(#radial-gradient-5);}.cls-21{fill:url(#radial-gradient-2);}.cls-26{fill:url(#radial-gradient-8);}.cls-27{fill:#4a96ff;}.cls-27,.cls-28,.cls-29,.cls-30,.cls-31,.cls-32{fill-rule:evenodd;}.cls-28{fill:#0f008a;}.cls-29{fill:#8ad2ff;}.cls-30{fill:#0053d4;}.cls-31{fill:#008ae9;}.cls-32{fill:#007aff;}.cls-33{isolation:isolate;}.cls-23{fill:url(#radial-gradient);}</style><linearGradient id="linear-gradient" x1="17.86" y1="789.3" x2="1598.74" y2="789.3" gradientUnits="userSpaceOnUse"><stop offset="0" stop-color="#c2d4fb" stop-opacity=".2"/><stop offset="1" stop-color="#8ad2ff"/></linearGradient><radialGradient id="radial-gradient" cx="-4102.71" cy="14344.91" fx="-4102.71" fy="14344.91" r="24885.41" gradientTransform="translate(14693.36 -506.89) rotate(89.98)" gradientUnits="userSpaceOnUse"><stop offset="0" stop-color="aqua"/><stop offset=".64" stop-color="#a25cff"/><stop offset="1" stop-color="#f0f"/></radialGradient><radialGradient id="radial-gradient-2" cx="-4102.71" cy="14344.9" fx="-4102.71" fy="14344.9" r="24885.41" xlink:href="#radial-gradient"/><radialGradient id="radial-gradient-3" cx="-4102.71" cy="14344.9" fx="-4102.71" fy="14344.9" r="24885.4" xlink:href="#radial-gradient"/><radialGradient id="radial-gradient-4" cx="-4102.71" cy="14344.89" fx="-4102.71" fy="14344.89" r="24885.39" xlink:href="#radial-gradient"/><radialGradient id="radial-gradient-5" cx="-4102.71" cy="14344.9" fx="-4102.71" fy="14344.9" r="24885.37" xlink:href="#radial-gradient"/><radialGradient id="radial-gradient-6" cx="-4102.71" cy="14344.96" fx="-4102.71" fy="14344.96" r="24885.38" xlink:href="#radial-gradient"/><radialGradient id="radial-gradient-7" cx="-4102.71" cy="14344.9" fx="-4102.71" fy="14344.9" r="24885.35" xlink:href="#radial-gradient"/><radialGradient id="radial-gradient-8" cx="-4102.71" cy="14344.94" fx="-4102.71" fy="14344.94" r="24885.37" xlink:href="#radial-gradient"/><radialGradient id="radial-gradient-9" cx="-3983.38" cy="14411.57" fx="-3983.38" fy="14411.57" r="24885.41" xlink:href="#radial-gradient"/><radialGradient id="radial-gradient-10" cx="-3983.38" cy="14411.56" fx="-3983.38" fy="14411.56" r="24885.41" xlink:href="#radial-gradient"/><radialGradient id="radial-gradient-11" cx="-3983.38" cy="14411.57" fx="-3983.38" fy="14411.57" r="24885.4" xlink:href="#radial-gradient"/><radialGradient id="radial-gradient-12" cx="-3983.38" cy="14411.55" fx="-3983.38" fy="14411.55" r="24885.39" xlink:href="#radial-gradient"/><radialGradient id="radial-gradient-13" cx="-3983.38" cy="14411.56" fx="-3983.38" fy="14411.56" r="24885.37" xlink:href="#radial-gradient"/><radialGradient id="radial-gradient-14" cx="-3983.38" cy="14411.62" fx="-3983.38" fy="14411.62" r="24885.38" xlink:href="#radial-gradient"/><radialGradient id="radial-gradient-15" cx="-3983.38" cy="14411.56" fx="-3983.38" fy="14411.56" r="24885.35" xlink:href="#radial-gradient"/><radialGradient id="radial-gradient-16" cx="-3983.38" cy="14411.6" fx="-3983.38" fy="14411.6" r="24885.37" xlink:href="#radial-gradient"/><radialGradient id="radial-gradient-17" cx="-3864" cy="14344.62" fx="-3864" fy="14344.62" r="24885.41" xlink:href="#radial-gradient"/><radialGradient id="radial-gradient-18" cx="-3864" cy="14344.61" fx="-3864" fy="14344.61" r="24885.41" xlink:href="#radial-gradient"/><radialGradient id="radial-gradient-19" cx="-3864" cy="14344.62" fx="-3864" fy="14344.62" r="24885.4" xlink:href="#radial-gradient"/><radialGradient id="radial-gradient-20" cx="-3864" cy="14344.6" fx="-3864" fy="14344.6" r="24885.39" xlink:href="#radial-gradient"/><radialGradient id="radial-gradient-21" cx="-3864" cy="14344.61" fx="-3864" fy="14344.61" r="24885.37" xlink:href="#radial-gradient"/><radialGradient id="radial-gradient-22" cx="-3864" cy="14344.67" fx="-3864" fy="14344.67" r="24885.38" xlink:href="#radial-gradient"/><radialGradient id="radial-gradient-23" cx="-3864" cy="14344.61" fx="-3864" fy="14344.61" r="24885.35" xlink:href="#radial-gradient"/><radialGradient id="radial-gradient-24" cx="-3864" cy="14344.65" fx="-3864" fy="14344.65" r="24885.37" xlink:href="#radial-gradient"/></defs><g class="cls-33"><g id="Layer_1"><circle class="cls-1" cx="808.3" cy="789.3" r="790.42"/><g><g><path class="cls-23" d="M245.76,622.78c0,15.92-12.19,28.97-27.12,28.98-15.08,0-27.2-13.03-27.21-28.95s12.1-28.95,27.19-28.96c14.94,0,27.14,12.95,27.15,28.93Z"/><path class="cls-21" d="M354.72,622.74c0,15.92-12.19,28.97-27.12,28.98s-27.25-13.03-27.25-28.95,12.15-28.95,27.23-28.96,27.14,12.95,27.15,28.93Z"/><path class="cls-17" d="M463.78,622.69c0,15.92-12.19,28.97-27.23,28.98-15.04,0-27.14-13.03-27.15-28.95s12.08-28.95,27.12-28.96c15.04,0,27.24,12.95,27.25,28.93Z"/><path class="cls-15" d="M572.74,622.64c0,15.92-12.19,28.97-27.12,28.98-15.1,0-27.18-13.03-27.19-28.95,0-15.99,12.06-28.95,27.17-28.96,14.93,0,27.14,12.95,27.15,28.93Z"/><path class="cls-20" d="M681.81,622.6c0,15.92-12.25,28.97-27.19,28.98s-27.18-13.03-27.19-28.95c0-15.99,12.14-28.95,27.16-28.96,14.94,0,27.2,12.95,27.21,28.93Z"/><path class="cls-18" d="M794.83,622.55c0,15.92-12.19,28.97-27.19,28.98-15.04,0-27.14-13.03-27.15-28.95,0-15.99,12.08-28.95,27.12-28.96,15,0,27.2,12.95,27.21,28.93Z"/><path class="cls-19" d="M901.83,622.51c0,15.92-12.19,28.97-27.19,28.98-15.02,0-27.18-13.03-27.19-28.95,0-15.99,12.15-28.95,27.16-28.96,15,0,27.2,12.95,27.21,28.93Z"/><g class="cls-22"><path class="cls-26" d="M1008.8,622.46c0,15.92-12.19,28.97-27.12,28.98-15.04,0-27.19-13.03-27.2-28.95,0-15.99,12.14-28.95,27.18-28.96,14.94,0,27.14,12.95,27.15,28.93Z"/></g></g><g><path class="cls-16" d="M179.15,742.14c0,15.92-12.19,28.97-27.12,28.98-15.08,0-27.2-13.03-27.21-28.95s12.1-28.95,27.19-28.96c14.94,0,27.14,12.95,27.15,28.93Z"/><path class="cls-6" d="M288.11,742.09c0,15.92-12.19,28.97-27.12,28.98-15.08,0-27.25-13.03-27.25-28.95s12.15-28.95,27.23-28.96c14.93,0,27.14,12.95,27.15,28.93Z"/><path class="cls-5" d="M397.17,742.05c0,15.92-12.19,28.97-27.23,28.98-15.04,0-27.14-13.03-27.15-28.95s12.08-28.95,27.12-28.96c15.04,0,27.24,12.95,27.25,28.93Z"/><path class="cls-7" d="M506.13,742c0,15.92-12.19,28.97-27.12,28.98-15.1,0-27.18-13.03-27.19-28.95,0-15.99,12.06-28.95,27.17-28.96,14.93,0,27.14,12.95,27.15,28.93Z"/><path class="cls-10" d="M615.2,741.96c0,15.92-12.25,28.97-27.19,28.98s-27.18-13.03-27.19-28.95c0-15.99,12.14-28.95,27.16-28.96,14.94,0,27.2,12.95,27.21,28.93Z"/><path class="cls-9" d="M728.22,741.91c0,15.92-12.19,28.97-27.19,28.98-15.04,0-27.14-13.03-27.15-28.95,0-15.99,12.08-28.95,27.12-28.96,15,0,27.2,12.95,27.21,28.93Z"/><path class="cls-8" d="M835.22,741.86c0,15.92-12.19,28.97-27.19,28.98-15.02,0-27.18-13.03-27.19-28.95,0-15.99,12.15-28.95,27.16-28.96,15,0,27.2,12.95,27.21,28.93Z"/><g class="cls-22"><path class="cls-25" d="M942.19,741.82c0,15.92-12.19,28.97-27.12,28.98-15.04,0-27.19-13.03-27.2-28.95,0-15.99,12.14-28.95,27.18-28.96,14.94,0,27.14,12.95,27.15,28.93Z"/></g></g><g><path class="cls-4" d="M246.15,861.5c0,15.92-12.19,28.97-27.12,28.98-15.08,0-27.2-13.03-27.21-28.95,0-15.99,12.1-28.95,27.19-28.96,14.94,0,27.14,12.95,27.15,28.93Z"/><path class="cls-3" d="M355.11,861.45c0,15.92-12.19,28.97-27.12,28.98-15.08,0-27.25-13.03-27.25-28.95s12.15-28.95,27.23-28.96c14.93,0,27.14,12.95,27.15,28.93Z"/><path class="cls-2" d="M464.17,861.41c0,15.92-12.19,28.97-27.23,28.98-15.04,0-27.14-13.03-27.15-28.95s12.08-28.95,27.12-28.96c15.04,0,27.24,12.95,27.25,28.93Z"/><path class="cls-13" d="M573.13,861.36c0,15.92-12.19,28.97-27.12,28.98-15.1,0-27.18-13.03-27.19-28.95,0-15.99,12.06-28.95,27.17-28.96,14.93,0,27.14,12.95,27.15,28.93Z"/><path class="cls-14" d="M682.2,861.31c0,15.92-12.25,28.97-27.19,28.98s-27.18-13.03-27.19-28.95c0-15.99,12.14-28.95,27.16-28.96,14.94,0,27.2,12.95,27.21,28.93Z"/><path class="cls-12" d="M795.22,861.26c0,15.92-12.19,28.97-27.19,28.98-15.04,0-27.14-13.03-27.15-28.95,0-15.99,12.08-28.95,27.12-28.96,15,0,27.2,12.95,27.21,28.93Z"/><path class="cls-11" d="M902.22,861.22c0,15.92-12.19,28.97-27.19,28.98-15.02,0-27.18-13.03-27.19-28.95,0-15.99,12.15-28.95,27.16-28.96,15,0,27.2,12.95,27.21,28.93Z"/><g class="cls-22"><path class="cls-24" d="M1009.19,861.17c0,15.92-12.19,28.97-27.12,28.98-15.04,0-27.19-13.03-27.2-28.95,0-15.99,12.14-28.95,27.18-28.96,14.94,0,27.14,12.95,27.15,28.93Z"/></g></g></g><g><polygon class="cls-29" points="911.99 407.87 1297.51 511.17 911.99 266.76 911.99 407.87"/><polygon class="cls-27" points="911.99 266.76 1297.51 511.17 911.99 125.65 911.99 266.76"/><polygon class="cls-28" points="911.99 266.76 911.99 125.65 728.07 231.83 911.99 266.76"/><polygon class="cls-32" points="911.99 266.76 728.07 231.83 911.99 407.87 911.99 266.76"/><polygon class="cls-30" points="911.99 407.87 728.07 231.83 728.07 400.51 1113.74 609.61 911.99 407.87"/><polygon class="cls-31" points="1113.74 609.61 728.07 400.51 937.16 609.61 1113.74 609.61"/><polygon class="cls-29" points="1113.74 609.61 937.16 609.61 596.4 806.35 1113.74 609.61"/><polygon class="cls-27" points="1113.74 609.61 596.4 806.35 761.84 1005.67 1113.74 609.61"/><polygon class="cls-30" points="1113.74 609.61 761.84 1005.67 944.31 1225.5 1113.74 609.61"/><polygon class="cls-28" points="944.31 1225.5 761.84 1005.67 448.49 1358.35 944.31 1225.5"/><polygon class="cls-31" points="448.49 1358.35 761.84 1005.67 596.4 806.35 448.49 1358.35"/></g></g></g></svg>